<svg xmlns="http://www.w3.org/2000/svg" viewBox="0 0 612.12 329.03"><defs><style>.cls-1{fill:#fff;}.cls-2{fill:#d2ab67;}</style></defs><g id="Layer_2" data-name="Layer 2"><g id="Layer_1-2" data-name="Layer 1"><rect width="612.12" height="329.03"/><rect class="cls-1" x="13.66" y="14.18" width="12.26" height="23.91"/><rect class="cls-1" x="49.44" y="14.18" width="12.26" height="23.91"/><rect class="cls-1" x="85.23" y="14.18" width="12.26" height="23.91"/><rect class="cls-1" x="121.01" y="14.18" width="12.26" height="23.91"/><rect class="cls-1" x="156.79" y="14.18" width="12.26" height="23.91"/><rect class="cls-1" x="192.58" y="14.18" width="12.26" height="23.91"/><rect class="cls-1" x="228.36" y="14.18" width="12.26" height="23.91"/><rect class="cls-1" x="264.14" y="14.18" width="12.26" height="23.91"/><rect class="cls-1" x="299.93" y="14.18" width="12.26" height="23.91"/><rect class="cls-1" x="335.71" y="14.18" width="12.26" height="23.91"/><rect class="cls-1" x="371.49" y="14.18" width="12.26" height="23.91"/><rect class="cls-1" x="407.27" y="14.18" width="12.26" height="23.91"/><rect class="cls-1" x="443.06" y="14.18" width="12.26" height="23.91"/><rect class="cls-1" x="478.84" y="14.18" width="12.26" height="23.91"/><rect class="cls-1" x="514.62" y="14.18" width="12.26" height="23.91"/><rect class="cls-1" x="550.41" y="14.18" width="12.26" height="23.91"/><rect class="cls-1" x="586.19" y="14.18" width="12.26" height="23.91"/><rect class="cls-1" x="13.66" y="243.81" width="12.26" height="23.91"/><rect class="cls-1" x="49.44" y="243.81" width="12.26" height="23.91"/><rect class="cls-1" x="85.23" y="243.81" width="12.26" height="23.91"/><rect class="cls-1" x="121.01" y="243.81" width="12.26" height="23.91"/><rect class="cls-1" x="156.79" y="243.81" width="12.26" height="23.91"/><rect class="cls-1" x="192.58" y="243.81" width="12.26" height="23.91"/><rect class="cls-1" x="228.36" y="243.81" width="12.26" height="23.91"/><rect class="cls-1" x="264.14" y="243.81" width="12.26" height="23.91"/><rect class="cls-1" x="299.93" y="243.81" width="12.26" height="23.91"/><rect class="cls-1" x="335.71" y="243.81" width="12.26" height="23.91"/><rect class="cls-1" x="371.49" y="243.81" width="12.26" height="23.91"/><rect class="cls-1" x="407.27" y="243.81" width="12.26" height="23.91"/><rect class="cls-1" x="443.06" y="243.81" width="12.26" height="23.91"/><rect class="cls-1" x="478.84" y="243.81" width="12.26" height="23.91"/><rect class="cls-1" x="514.62" y="243.81" width="12.26" height="23.91"/><rect class="cls-1" x="550.41" y="243.81" width="12.26" height="23.91"/><rect class="cls-1" x="586.19" y="243.81" width="12.26" height="23.91"/><path class="cls-2" d="M168.26,131.64q0,11.52-8.36,18t-22.69,6.45q-15.53,0-23.88-4v-9.79a62.54,62.54,0,0,0,11.7,3.58,61.28,61.28,0,0,0,12.54,1.31q10.14,0,15.28-3.85A12.61,12.61,0,0,0,158,132.6a13.8,13.8,0,0,0-1.82-7.44,17,17,0,0,0-6.09-5.34,85.79,85.79,0,0,0-13-5.55q-12.18-4.36-17.4-10.33t-5.23-15.59a19.38,19.38,0,0,1,7.59-16.06q7.58-6,20.06-6a59.23,59.23,0,0,1,23.94,4.78l-3.17,8.84a54,54,0,0,0-21-4.54q-8.07,0-12.6,3.46a11.4,11.4,0,0,0-4.54,9.61,14.79,14.79,0,0,0,1.67,7.44,15.77,15.77,0,0,0,5.65,5.31,69.67,69.67,0,0,0,12.15,5.35q13.73,4.89,18.89,10.5T168.26,131.64Z"/><path class="cls-2" d="M224.74,154.87,195.13,77.49h-.48q.82,9.2.83,21.85v55.53h-9.37V67.58h15.28l27.65,72h.48l27.88-72h15.16v87.29H262.41V98.62q0-9.66.84-21h-.48l-29.85,77.26Z"/><path class="cls-2" d="M351.38,154.87,340.51,127.1h-35l-10.75,27.77H284.5L319,67.22h8.54l34.33,87.65Zm-14-36.9-10.15-27q-2-5.13-4.06-12.6a111.33,111.33,0,0,1-3.76,12.6L309.1,118Z"/><path class="cls-2" d="M384,118.57v36.3H373.88V67.58h23.95q16.05,0,23.73,6.15t7.67,18.51q0,17.31-17.55,23.4l23.7,39.23h-12l-21.14-36.3Zm0-8.72H398q10.74,0,15.76-4.27c3.34-2.85,5-7.11,5-12.81s-1.7-9.93-5.1-12.48-8.87-3.82-16.39-3.82H384Z"/><path class="cls-2" d="M476.34,154.87H466.19V76.59H438.55v-9H504v9H476.34Z"/><path class="cls-2" d="M146.77,215.9h-4.94v-20H119.48v20h-4.94V173.45h4.94v18.06h22.35V173.45h4.94Z"/><path class="cls-2" d="M185.16,200c0,5.18-1.31,9.24-3.92,12.15s-6.23,4.37-10.83,4.37a14.29,14.29,0,0,1-7.58-2,13.18,13.18,0,0,1-5.11-5.74,20,20,0,0,1-1.8-8.77q0-7.78,3.89-12.12t10.8-4.35a13.43,13.43,0,0,1,10.61,4.45Q185.15,192.38,185.16,200Zm-24.25,0q0,6.09,2.44,9.29a9.69,9.69,0,0,0,14.36,0q2.44-3.18,2.45-9.3t-2.45-9.22c-1.64-2.1-4.05-3.15-7.25-3.15s-5.53,1-7.14,3.1S160.91,195.85,160.91,200Z"/><path class="cls-2" d="M234.17,215.9V195.2c0-2.54-.55-4.44-1.63-5.71s-2.77-1.9-5-1.9q-4.5,0-6.65,2.58t-2.15,8V215.9h-4.82V195.2q0-3.81-1.63-5.71t-5.08-1.9q-4.53,0-6.63,2.71c-1.4,1.81-2.11,4.78-2.11,8.9v16.7H193.6V184.08h3.92l.79,4.35h.23a9.44,9.44,0,0,1,3.85-3.63,11.76,11.76,0,0,1,5.56-1.31q7.45,0,9.75,5.4h.24a10,10,0,0,1,4.12-3.94,12.76,12.76,0,0,1,6.15-1.46q5.4,0,8.09,2.78c1.79,1.85,2.69,4.8,2.69,8.87V215.9Z"/><path class="cls-2" d="M262.36,216.48q-7,0-11.14-4.3t-4.07-11.93q0-7.69,3.78-12.23a12.6,12.6,0,0,1,10.18-4.53,12,12,0,0,1,9.47,3.94q3.48,3.93,3.48,10.38v3.05H252.14c.1,3.73,1,6.57,2.83,8.5a9.77,9.77,0,0,0,7.56,2.91,25.7,25.7,0,0,0,10.17-2.15v4.3a26.13,26.13,0,0,1-4.84,1.58A27.09,27.09,0,0,1,262.36,216.48Zm-1.31-28.95a7.86,7.86,0,0,0-6.11,2.5,11.49,11.49,0,0,0-2.68,6.91h16.63c0-3-.67-5.37-2-7A7.16,7.16,0,0,0,261.05,187.53Z"/><path class="cls-2" d="M316.63,177.25q-7,0-11.05,4.66t-4.05,12.76q0,8.34,3.9,12.88t11.14,4.54a38.14,38.14,0,0,0,10.13-1.59v4.32a31,31,0,0,1-10.89,1.66q-9.37,0-14.47-5.69t-5.1-16.18a25.45,25.45,0,0,1,2.46-11.49,17.56,17.56,0,0,1,7.08-7.61,21.45,21.45,0,0,1,10.9-2.67,26.26,26.26,0,0,1,11.68,2.44l-2.09,4.24A22.54,22.54,0,0,0,316.63,177.25Z"/><path class="cls-2" d="M334.83,175.45a3.2,3.2,0,0,1,.81-2.42,3,3,0,0,1,4,0,3.15,3.15,0,0,1,.84,2.41,3.21,3.21,0,0,1-.84,2.43,3,3,0,0,1-4,0A3.28,3.28,0,0,1,334.83,175.45Zm5.23,40.45h-4.82V184.08h4.82Z"/><path class="cls-2" d="M372.06,215.9V195.31c0-2.59-.6-4.53-1.78-5.81s-3-1.91-5.54-1.91q-5,0-7.32,2.7t-2.32,8.91v16.7h-4.82V184.08h3.92l.78,4.35h.24a9.77,9.77,0,0,1,4.15-3.64,13.49,13.49,0,0,1,5.95-1.3c3.83,0,6.72.93,8.65,2.78s2.91,4.8,2.91,8.87V215.9Z"/><path class="cls-2" d="M400.22,216.48q-7.05,0-11.14-4.3T385,200.25q0-7.69,3.78-12.23A12.6,12.6,0,0,1,399,183.49a12,12,0,0,1,9.47,3.94q3.48,3.93,3.48,10.38v3.05H390c.1,3.73,1,6.57,2.83,8.5a9.77,9.77,0,0,0,7.56,2.91,25.7,25.7,0,0,0,10.17-2.15v4.3a26.13,26.13,0,0,1-4.84,1.58A27.09,27.09,0,0,1,400.22,216.48Zm-1.31-28.95a7.86,7.86,0,0,0-6.11,2.5,11.49,11.49,0,0,0-2.68,6.91h16.63c0-3-.67-5.37-2-7A7.16,7.16,0,0,0,398.91,187.53Z"/><path class="cls-2" d="M460.7,215.9V195.2q0-3.81-1.63-5.71t-5.05-1.9c-3,0-5.21.86-6.65,2.58s-2.15,4.38-2.15,8V215.9H440.4V195.2q0-3.81-1.62-5.71t-5.08-1.9q-4.53,0-6.64,2.71t-2.1,8.9v16.7h-4.82V184.08h3.92l.78,4.35h.23a9.5,9.5,0,0,1,3.85-3.63,11.79,11.79,0,0,1,5.56-1.31q7.47,0,9.76,5.4h.23a10.11,10.11,0,0,1,4.12-3.94,12.77,12.77,0,0,1,6.16-1.46q5.4,0,8.08,2.78c1.79,1.85,2.69,4.8,2.69,8.87V215.9Z"/><path class="cls-2" d="M495,215.9l-1-4.53h-.23a13.47,13.47,0,0,1-4.75,4,14.43,14.43,0,0,1-5.91,1.06,10.6,10.6,0,0,1-7.41-2.44,8.87,8.87,0,0,1-2.69-6.94q0-9.65,15.42-10.1l5.4-.18v-2q0-3.75-1.61-5.53t-5.16-1.79a21,21,0,0,0-9,2.44l-1.48-3.69a22.69,22.69,0,0,1,5.15-2,22.06,22.06,0,0,1,5.62-.73q5.7,0,8.44,2.53t2.74,8.1V215.9Zm-10.89-3.4A9.76,9.76,0,0,0,491.2,210a9.1,9.1,0,0,0,2.57-6.91v-2.87l-4.82.2c-3.83.14-6.59.73-8.29,1.79a5.38,5.38,0,0,0-2.54,4.92,5,5,0,0,0,1.58,4A6.58,6.58,0,0,0,484.13,212.5Z"/><path class="cls-2" d="M78.35,299.23h8.5v12.16a28.24,28.24,0,0,1-4,1,31.6,31.6,0,0,1-4.75.32q-5.67,0-8.84-3.38t-3.16-9.46A14.34,14.34,0,0,1,67.62,293a10.71,10.71,0,0,1,4.51-4.48A14.59,14.59,0,0,1,79,287a18.83,18.83,0,0,1,7.45,1.47L85.34,291a16.57,16.57,0,0,0-6.51-1.43,9.34,9.34,0,0,0-7.13,2.71,10.57,10.57,0,0,0-2.56,7.54q0,5.07,2.47,7.68t7.25,2.61a21.52,21.52,0,0,0,5.08-.59v-7.7H78.35Z"/><path class="cls-2" d="M101,293.25a10.87,10.87,0,0,1,2.24.21l-.4,2.63a9.73,9.73,0,0,0-2-.26,5,5,0,0,0-3.89,1.85,6.76,6.76,0,0,0-1.61,4.6v10.05H92.42V293.59h2.34l.33,3.47h.13a8.29,8.29,0,0,1,2.52-2.82A5.65,5.65,0,0,1,101,293.25Z"/><path class="cls-2" d="M114.63,312.67a8.6,8.6,0,0,1-6.56-2.53,9.79,9.79,0,0,1-2.4-7,10.83,10.83,0,0,1,2.23-7.19,7.4,7.4,0,0,1,6-2.67,7,7,0,0,1,5.57,2.32,8.85,8.85,0,0,1,2.05,6.11v1.79h-12.9a7.42,7.42,0,0,0,1.67,5,5.74,5.74,0,0,0,4.45,1.71,15.11,15.11,0,0,0,6-1.26v2.53a15.21,15.21,0,0,1-2.85.93A15.77,15.77,0,0,1,114.63,312.67Zm-.77-17a4.62,4.62,0,0,0-3.6,1.47,6.73,6.73,0,0,0-1.58,4.07h9.79a6.32,6.32,0,0,0-1.19-4.12A4.22,4.22,0,0,0,113.86,295.63Z"/><path class="cls-2" d="M137.88,312.33l-.57-2.67h-.14a7.83,7.83,0,0,1-2.79,2.39,8.64,8.64,0,0,1-3.48.62,6.3,6.3,0,0,1-4.37-1.43,5.26,5.26,0,0,1-1.58-4.09q0-5.67,9.08-5.95l3.18-.1v-1.16a4.77,4.77,0,0,0-1-3.26,3.89,3.89,0,0,0-3-1.05,12.42,12.42,0,0,0-5.3,1.43l-.88-2.17a13.82,13.82,0,0,1,3-1.18,13.35,13.35,0,0,1,3.31-.42,7.12,7.12,0,0,1,5,1.48q1.62,1.49,1.62,4.77v12.79Zm-6.42-2a5.77,5.77,0,0,0,4.17-1.45,5.38,5.38,0,0,0,1.51-4.07v-1.7l-2.84.12a10.23,10.23,0,0,0-4.88,1.06,3.15,3.15,0,0,0-1.49,2.89,2.94,2.94,0,0,0,.93,2.35A3.89,3.89,0,0,0,131.46,310.33Z"/><path class="cls-2" d="M151.88,310.33a9.79,9.79,0,0,0,1.45-.11,10.39,10.39,0,0,0,1.11-.23v2.17a5.24,5.24,0,0,1-1.36.37,11.07,11.07,0,0,1-1.61.14q-5.44,0-5.44-5.73V295.8h-2.68v-1.37l2.68-1.18,1.2-4h1.64v4.34h5.43v2.21h-5.43v11a3.82,3.82,0,0,0,.8,2.6A2.79,2.79,0,0,0,151.88,310.33Z"/><path class="cls-2" d="M181.81,305.68a6.13,6.13,0,0,1-2.39,5.14,10.33,10.33,0,0,1-6.5,1.85,16.37,16.37,0,0,1-6.84-1.14v-2.81a17.49,17.49,0,0,0,3.35,1,17.72,17.72,0,0,0,3.59.37,7.22,7.22,0,0,0,4.38-1.1,3.62,3.62,0,0,0,1.47-3.07,4,4,0,0,0-.52-2.13,4.9,4.9,0,0,0-1.75-1.53,25.75,25.75,0,0,0-3.71-1.59,11.86,11.86,0,0,1-5-2.95,6.57,6.57,0,0,1-1.49-4.46,5.54,5.54,0,0,1,2.17-4.6,9,9,0,0,1,5.74-1.71,17,17,0,0,1,6.86,1.36l-.91,2.54a15.42,15.42,0,0,0-6-1.3,5.81,5.81,0,0,0-3.6,1,3.26,3.26,0,0,0-1.3,2.75,4.2,4.2,0,0,0,.48,2.13,4.48,4.48,0,0,0,1.61,1.52,20.46,20.46,0,0,0,3.48,1.53,13.69,13.69,0,0,1,5.41,3A5.89,5.89,0,0,1,181.81,305.68Z"/><path class="cls-2" d="M202.67,302.94a10.34,10.34,0,0,1-2.31,7.16,8.16,8.16,0,0,1-6.38,2.57,8.42,8.42,0,0,1-4.46-1.18,7.81,7.81,0,0,1-3-3.38,11.76,11.76,0,0,1-1.06-5.17q0-4.57,2.29-7.13a8.09,8.09,0,0,1,6.36-2.56,7.91,7.91,0,0,1,6.25,2.62A10.3,10.3,0,0,1,202.67,302.94Zm-14.28,0a8.85,8.85,0,0,0,1.44,5.47,5,5,0,0,0,4.22,1.89,5,5,0,0,0,4.23-1.88,8.84,8.84,0,0,0,1.45-5.48,8.69,8.69,0,0,0-1.45-5.42,5.06,5.06,0,0,0-4.26-1.86,5,5,0,0,0-4.21,1.83A8.78,8.78,0,0,0,188.39,302.94Z"/><path class="cls-2" d="M210.31,293.59v12.16a4.93,4.93,0,0,0,1,3.42,4.26,4.26,0,0,0,3.27,1.13,5.34,5.34,0,0,0,4.3-1.61q1.35-1.6,1.35-5.25v-9.85h2.84v18.74h-2.34l-.41-2.51h-.15a5.68,5.68,0,0,1-2.42,2.12,8.13,8.13,0,0,1-3.53.73,7.17,7.17,0,0,1-5.12-1.62c-1.14-1.08-1.7-2.82-1.7-5.2V293.59Z"/><path class="cls-2" d="M242,312.33V300.21a4.91,4.91,0,0,0-1-3.42,4.28,4.28,0,0,0-3.27-1.13,5.4,5.4,0,0,0-4.31,1.59Q232,298.84,232,302.5v9.83h-2.84V293.59h2.31l.46,2.57H232a5.75,5.75,0,0,1,2.44-2.15,7.91,7.91,0,0,1,3.5-.76,7.16,7.16,0,0,1,5.1,1.63q1.71,1.64,1.71,5.23v12.22Z"/><path class="cls-2" d="M263.37,309.82h-.15a6.67,6.67,0,0,1-5.88,2.85,7,7,0,0,1-5.72-2.51q-2-2.52-2-7.15t2-7.19a6.9,6.9,0,0,1,5.71-2.57,6.79,6.79,0,0,1,5.84,2.77h.23l-.12-1.35-.07-1.32v-7.62h2.84v26.6h-2.31Zm-5.67.48a5.15,5.15,0,0,0,4.21-1.59q1.3-1.57,1.31-5.1V303c0-2.65-.44-4.55-1.33-5.68a5,5,0,0,0-4.23-1.7,4.33,4.33,0,0,0-3.82,1.94,9.67,9.67,0,0,0-1.32,5.48,9.24,9.24,0,0,0,1.31,5.42A4.47,4.47,0,0,0,257.7,310.3Z"/><path class="cls-2" d="M289.29,312.33h-2.91V289.92h-7.91v-2.58H297.2v2.58h-7.91Z"/><path class="cls-2" d="M313.36,312.33V300.21a4.86,4.86,0,0,0-1.05-3.42,4.24,4.24,0,0,0-3.26-1.13,5.37,5.37,0,0,0-4.32,1.61c-.9,1.07-1.36,2.82-1.36,5.26v9.8h-2.83v-26.6h2.83v8a17.87,17.87,0,0,1-.13,2.41h.17a5.81,5.81,0,0,1,2.38-2.13,7.73,7.73,0,0,1,3.53-.77,7.25,7.25,0,0,1,5.16,1.63c1.14,1.09,1.72,2.82,1.72,5.19v12.22Z"/><path class="cls-2" d="M330.57,293.25a10.87,10.87,0,0,1,2.24.21l-.39,2.63a9.8,9.8,0,0,0-2.05-.26,5,5,0,0,0-3.89,1.85,6.71,6.71,0,0,0-1.62,4.6v10.05H322V293.59h2.34l.32,3.47h.14a8.16,8.16,0,0,1,2.51-2.82A5.67,5.67,0,0,1,330.57,293.25Z"/><path class="cls-2" d="M352.49,302.94a10.34,10.34,0,0,1-2.31,7.16,8.14,8.14,0,0,1-6.38,2.57,8.42,8.42,0,0,1-4.46-1.18,7.81,7.81,0,0,1-3-3.38,11.9,11.9,0,0,1-1.06-5.17,10.34,10.34,0,0,1,2.29-7.13,8.09,8.09,0,0,1,6.36-2.56,7.91,7.91,0,0,1,6.25,2.62A10.25,10.25,0,0,1,352.49,302.94Zm-14.28,0a8.85,8.85,0,0,0,1.44,5.47,5.68,5.68,0,0,0,8.45,0,8.78,8.78,0,0,0,1.45-5.48,8.63,8.63,0,0,0-1.45-5.42,5.06,5.06,0,0,0-4.26-1.86,5,5,0,0,0-4.21,1.83A8.84,8.84,0,0,0,338.21,302.94Z"/><path class="cls-2" d="M360.13,293.59v12.16a4.93,4.93,0,0,0,1,3.42,4.28,4.28,0,0,0,3.27,1.13,5.34,5.34,0,0,0,4.3-1.61c.9-1.07,1.36-2.82,1.36-5.25v-9.85h2.83v18.74h-2.34l-.41-2.51H370a5.68,5.68,0,0,1-2.42,2.12,8.13,8.13,0,0,1-3.53.73,7.17,7.17,0,0,1-5.12-1.62c-1.13-1.08-1.7-2.82-1.7-5.2V293.59Z"/><path class="cls-2" d="M394.29,293.59v1.8l-3.47.41a6.27,6.27,0,0,1,.85,1.56,6,6,0,0,1,.38,2.18,5.56,5.56,0,0,1-1.88,4.4,7.63,7.63,0,0,1-5.17,1.64,8.73,8.73,0,0,1-1.57-.14,2.79,2.79,0,0,0-1.81,2.41,1.24,1.24,0,0,0,.63,1.14,4.71,4.71,0,0,0,2.17.36h3.32a7.36,7.36,0,0,1,4.67,1.29,4.44,4.44,0,0,1,1.64,3.72,5.32,5.32,0,0,1-2.5,4.75q-2.49,1.63-7.28,1.63a10,10,0,0,1-5.67-1.37,4.41,4.41,0,0,1-2-3.86,4.33,4.33,0,0,1,1.09-3,5.62,5.62,0,0,1,3.08-1.69,2.91,2.91,0,0,1-1.2-1,2.65,2.65,0,0,1-.49-1.59,3,3,0,0,1,.55-1.79,5.66,5.66,0,0,1,1.72-1.49,5.07,5.07,0,0,1-2.37-2,6,6,0,0,1-.91-3.28,6.06,6.06,0,0,1,1.85-4.74,7.53,7.53,0,0,1,5.23-1.67,9.84,9.84,0,0,1,2.65.34Zm-14.94,21.88a2.52,2.52,0,0,0,1.28,2.31,7,7,0,0,0,3.67.79,10.26,10.26,0,0,0,5.29-1.07,3.26,3.26,0,0,0,1.72-2.9,2.3,2.3,0,0,0-.94-2.11,7.36,7.36,0,0,0-3.54-.59h-3.4a4.46,4.46,0,0,0-3,.93A3.26,3.26,0,0,0,379.35,315.47Zm1.53-15.88a3.83,3.83,0,0,0,1.11,3,4.48,4.48,0,0,0,3.1,1q4.16,0,4.15-4,0-4.21-4.2-4.22A4.16,4.16,0,0,0,382,296.4,4.31,4.31,0,0,0,380.88,299.59Z"/><path class="cls-2" d="M411,312.33V300.21a4.86,4.86,0,0,0-1-3.42,4.24,4.24,0,0,0-3.26-1.13,5.36,5.36,0,0,0-4.32,1.61q-1.36,1.61-1.36,5.26v9.8h-2.84v-26.6H401v8a16.19,16.19,0,0,1-.14,2.41H401a5.75,5.75,0,0,1,2.38-2.13,7.73,7.73,0,0,1,3.53-.77,7.2,7.2,0,0,1,5.15,1.63q1.73,1.63,1.72,5.19v12.22Z"/><path class="cls-2" d="M443.25,305.68a6.11,6.11,0,0,1-2.4,5.14,10.3,10.3,0,0,1-6.49,1.85,16.31,16.31,0,0,1-6.84-1.14v-2.81a17.28,17.28,0,0,0,3.35,1,17.65,17.65,0,0,0,3.59.37,7.22,7.22,0,0,0,4.38-1.1,3.62,3.62,0,0,0,1.47-3.07,4,4,0,0,0-.52-2.13,4.9,4.9,0,0,0-1.75-1.53,25.47,25.47,0,0,0-3.72-1.59,11.88,11.88,0,0,1-5-2.95,6.52,6.52,0,0,1-1.5-4.46,5.57,5.57,0,0,1,2.17-4.6,9,9,0,0,1,5.75-1.71,16.93,16.93,0,0,1,6.85,1.36l-.9,2.54a15.42,15.42,0,0,0-6-1.3,5.84,5.84,0,0,0-3.61,1,3.28,3.28,0,0,0-1.3,2.75,4.2,4.2,0,0,0,.48,2.13,4.52,4.52,0,0,0,1.62,1.52,20.46,20.46,0,0,0,3.48,1.53,13.77,13.77,0,0,1,5.41,3A5.94,5.94,0,0,1,443.25,305.68Z"/><path class="cls-2" d="M455.42,312.67a8,8,0,0,1-6.3-2.5c-1.49-1.67-2.23-4-2.23-7.09s.75-5.56,2.26-7.26a8.16,8.16,0,0,1,6.46-2.57,13,13,0,0,1,2.7.29,8.76,8.76,0,0,1,2.12.69l-.87,2.41a13.87,13.87,0,0,0-2.06-.63,9.46,9.46,0,0,0-2-.25q-5.71,0-5.71,7.29a8.67,8.67,0,0,0,1.39,5.3,4.85,4.85,0,0,0,4.13,1.84,12.47,12.47,0,0,0,4.8-1v2.52A10.21,10.21,0,0,1,455.42,312.67Z"/><path class="cls-2" d="M464.36,288.52a1.88,1.88,0,0,1,.48-1.43,1.69,1.69,0,0,1,1.2-.45,1.65,1.65,0,0,1,1.17.46,1.81,1.81,0,0,1,.5,1.42,1.84,1.84,0,0,1-.5,1.42,1.73,1.73,0,0,1-2.37,0A1.91,1.91,0,0,1,464.36,288.52Zm3.08,23.81H464.6V293.59h2.84Z"/><path class="cls-2" d="M481.37,312.67a8.6,8.6,0,0,1-6.56-2.53,9.79,9.79,0,0,1-2.4-7,10.89,10.89,0,0,1,2.23-7.19,7.42,7.42,0,0,1,6-2.67,7.06,7.06,0,0,1,5.58,2.32,8.85,8.85,0,0,1,2.05,6.11v1.79H475.35a7.42,7.42,0,0,0,1.67,5,5.76,5.76,0,0,0,4.45,1.71,15.19,15.19,0,0,0,6-1.26v2.53a15.69,15.69,0,0,1-2.85.93A16,16,0,0,1,481.37,312.67Zm-.77-17a4.65,4.65,0,0,0-3.6,1.47,6.79,6.79,0,0,0-1.58,4.07h9.8a6.27,6.27,0,0,0-1.2-4.12A4.22,4.22,0,0,0,480.6,295.63Z"/><path class="cls-2" d="M505.92,312.33V300.21a4.91,4.91,0,0,0-1-3.42,4.28,4.28,0,0,0-3.27-1.13,5.39,5.39,0,0,0-4.31,1.59q-1.37,1.59-1.37,5.25v9.83H493.1V293.59h2.3l.47,2.57H496a5.78,5.78,0,0,1,2.45-2.15,7.88,7.88,0,0,1,3.5-.76,7.16,7.16,0,0,1,5.1,1.63q1.71,1.64,1.71,5.23v12.22Z"/><path class="cls-2" d="M522.07,312.67a8,8,0,0,1-6.3-2.5c-1.48-1.67-2.23-4-2.23-7.09s.76-5.56,2.27-7.26a8.15,8.15,0,0,1,6.45-2.57,13,13,0,0,1,2.7.29,8.76,8.76,0,0,1,2.12.69l-.87,2.41a14.1,14.1,0,0,0-2.05-.63,9.55,9.55,0,0,0-2-.25q-5.7,0-5.71,7.29a8.67,8.67,0,0,0,1.4,5.3,4.83,4.83,0,0,0,4.12,1.84,12.48,12.48,0,0,0,4.81-1v2.52A10.25,10.25,0,0,1,522.07,312.67Z"/><path class="cls-2" d="M539.17,312.67a8.6,8.6,0,0,1-6.56-2.53,9.79,9.79,0,0,1-2.4-7,10.83,10.83,0,0,1,2.23-7.19,7.42,7.42,0,0,1,6-2.67,7.06,7.06,0,0,1,5.58,2.32,8.9,8.9,0,0,1,2,6.11v1.79H533.15a7.42,7.42,0,0,0,1.67,5,5.76,5.76,0,0,0,4.45,1.71,15.11,15.11,0,0,0,6-1.26v2.53a15.36,15.36,0,0,1-2.84.93A16,16,0,0,1,539.17,312.67Zm-.77-17a4.65,4.65,0,0,0-3.6,1.47,6.79,6.79,0,0,0-1.58,4.07H543a6.27,6.27,0,0,0-1.2-4.12A4.22,4.22,0,0,0,538.4,295.63Z"/></g></g></svg>